<?xml version="1.0" standalone="no"?>
<!DOCTYPE svg PUBLIC "-//W3C//DTD SVG 20010904//EN"
 "http://www.w3.org/TR/2001/REC-SVG-20010904/DTD/svg10.dtd">
<svg version="1.0" xmlns="http://www.w3.org/2000/svg"
 width="88.000000pt" height="60.000000pt" viewBox="0 0 88.000000 60.000000"
 preserveAspectRatio="xMidYMid meet">

<g transform="translate(0.000000,60.000000) scale(0.100000,-0.100000)"
fill="#000000" stroke="none">
<path d="M235 569 c-79 -13 -155 -57 -192 -113 -51 -76 -43 -144 27 -231 31
-39 32 -42 25 -107 -3 -38 -4 -68 -1 -68 3 0 36 20 73 45 82 55 134 61 188 20
19 -15 58 -31 94 -37 77 -15 128 -1 184 51 36 33 47 37 78 34 43 -6 112 26
130 58 39 73 28 129 -32 160 -26 13 -39 26 -39 39 0 14 -7 20 -22 21 -13 0
-56 2 -96 5 -69 5 -76 8 -113 44 -67 65 -189 97 -304 79z m167 -70 c20 -5 47
-18 60 -29 l23 -20 -130 2 -130 2 2 -63 c1 -45 10 -79 31 -126 l30 -63 -41 -5
c-23 -2 -52 -8 -64 -12 -19 -6 -23 -4 -23 12 0 11 -20 43 -45 72 -58 67 -61
112 -14 166 68 77 168 98 301 64z m106 -110 c155 -1 202 -4 202 -14 0 -21 -42
-118 -69 -159 -32 -49 -67 -75 -114 -86 -40 -8 -99 0 -103 15 -2 6 24 23 57
38 69 33 108 82 116 146 5 39 4 41 -21 41 -21 0 -26 -5 -26 -24 0 -36 -41 -88
-90 -113 -76 -38 -88 -36 -127 27 -18 30 -37 70 -43 89 -9 34 -5 55 9 47 4 -3
98 -6 209 -7z m297 -79 c8 -26 -17 -67 -51 -82 -36 -17 -40 -3 -14 52 25 53
53 66 65 30z"/>
</g>
</svg>
