<?xml version="1.0" standalone="no"?>
<!DOCTYPE svg PUBLIC "-//W3C//DTD SVG 20010904//EN"
 "http://www.w3.org/TR/2001/REC-SVG-20010904/DTD/svg10.dtd">
<svg version="1.0" xmlns="http://www.w3.org/2000/svg"
 width="667.000000pt" height="578.000000pt" viewBox="0 0 667.000000 578.000000"
 preserveAspectRatio="xMidYMid meet">

<g transform="translate(0.000000,578.000000) scale(0.100000,-0.100000)"
fill="#000000" stroke="none">
<path d="M3320 5609 c-602 -54 -1186 -310 -1514 -665 -31 -34 -68 -65 -82 -68
-35 -9 -182 -81 -291 -142 -450 -254 -881 -757 -1087 -1269 -218 -540 -217
-1232 1 -1785 282 -715 904 -1291 1622 -1501 185 -54 247 -68 381 -85 149 -18
481 -18 624 1 83 11 126 12 180 4 95 -13 390 -13 498 0 48 7 131 23 185 36 54
14 120 25 148 25 150 0 478 64 699 136 393 128 729 326 1014 599 479 457 752
1023 813 1689 13 140 6 399 -16 554 -62 437 -237 881 -494 1252 -89 128 -144
193 -286 339 -270 277 -545 469 -885 619 -451 199 -1046 302 -1510 261z m525
-284 c66 -8 170 -24 231 -36 l112 -21 6 -91 c21 -277 129 -466 338 -590 64
-38 200 -87 243 -87 46 0 54 -9 61 -71 6 -58 7 -59 59 -88 60 -34 115 -93 147
-160 22 -44 23 -59 26 -336 3 -290 3 -290 27 -315 34 -36 86 -146 135 -287 42
-120 44 -123 87 -147 24 -14 74 -35 111 -46 37 -12 74 -25 82 -29 28 -15 42
-144 44 -381 1 -195 -2 -241 -22 -345 -76 -402 -192 -677 -414 -977 -205 -279
-510 -539 -807 -688 -56 -27 -101 -48 -101 -46 0 2 39 37 88 78 213 183 417
420 537 623 239 405 355 824 355 1280 0 269 -29 449 -115 710 -25 76 -119 280
-147 318 -11 15 -36 20 -139 27 -184 13 -277 54 -356 158 -45 59 -51 91 -59
297 -8 207 -19 249 -90 344 -52 69 -208 199 -332 278 -262 165 -544 269 -897
329 -112 19 -526 30 -610 16 -33 -5 -61 -9 -63 -7 -7 6 116 69 237 120 197 84
447 149 661 174 126 14 436 12 565 -4z m742 -176 c262 -92 567 -281 818 -506
478 -429 772 -1027 826 -1678 41 -481 -87 -989 -353 -1410 -217 -342 -533
-638 -862 -808 -49 -26 -91 -45 -93 -44 -1 2 20 20 47 41 135 103 358 354 475
536 75 116 187 342 237 480 63 172 138 485 138 576 0 29 5 36 39 54 22 10 53
36 70 57 82 99 59 225 -55 305 l-44 32 0 120 c0 129 -17 200 -71 297 -28 50
-34 53 -119 68 -96 17 -179 62 -239 127 l-51 56 0 91 c-2 292 -13 647 -22 682
-22 87 -100 208 -177 278 -46 41 -78 57 -117 57 -24 0 -25 2 -23 52 3 48 1 52
-21 59 -42 11 -154 79 -175 105 -13 16 -39 29 -76 38 -108 25 -176 81 -231
191 -22 43 -48 134 -48 165 0 17 36 11 127 -21z m-1772 -369 c373 -29 722
-142 990 -319 102 -67 222 -174 264 -235 28 -40 29 -44 34 -216 5 -190 13
-226 69 -333 45 -86 154 -193 245 -240 75 -39 193 -73 277 -80 l50 -4 34 -79
c37 -86 69 -198 104 -363 20 -92 23 -135 23 -326 0 -236 -14 -363 -60 -545
-103 -410 -279 -717 -594 -1030 -165 -164 -240 -223 -426 -335 -262 -158 -491
-244 -794 -296 -153 -27 -507 -32 -656 -10 -486 72 -938 307 -1284 667 -236
246 -380 469 -495 766 -92 237 -126 421 -133 705 -6 248 6 391 47 560 103 415
304 769 608 1071 385 381 870 606 1387 641 159 11 178 12 310 1z"/>
<path d="M5567 3799 c-62 -32 -97 -110 -82 -178 14 -65 99 -130 170 -131 41 0
105 38 132 79 47 70 19 174 -61 229 -41 28 -107 28 -159 1z"/>
<path d="M2359 4316 c-89 -31 -136 -75 -175 -160 -23 -50 -26 -68 -22 -126 12
-159 158 -283 313 -267 231 24 336 302 180 475 -73 81 -197 114 -296 78z m125
-179 c32 -23 23 -67 -20 -105 -49 -42 -79 -50 -104 -27 -70 63 48 188 124 132z"/>
<path d="M1337 3889 c-70 -17 -148 -61 -213 -121 -195 -183 -197 -480 -4 -669
187 -182 444 -186 635 -7 99 92 145 197 145 333 0 137 -42 238 -140 335 -114
114 -277 163 -423 129z m176 -235 c69 -23 117 -83 117 -143 0 -137 -139 -261
-295 -263 -54 -1 -85 22 -122 96 -20 40 -24 59 -20 105 12 144 41 190 132 212
53 13 140 9 188 -7z"/>
<path d="M3313 3781 c-111 -41 -193 -122 -234 -229 -29 -80 -24 -194 13 -274
35 -76 104 -147 181 -189 59 -33 67 -34 167 -34 93 0 112 3 162 27 76 35 151
107 185 177 25 50 28 67 28 156 0 91 -3 106 -31 165 -39 81 -99 141 -181 182
-83 41 -210 49 -290 19z m185 -176 c51 -22 81 -52 88 -92 21 -114 -89 -243
-208 -243 -54 0 -80 17 -115 78 -23 39 -28 58 -27 113 2 84 14 106 77 134 61
28 132 32 185 10z"/>
<path d="M2313 2810 c-98 -20 -204 -105 -256 -205 -28 -54 -31 -69 -32 -150 0
-81 3 -97 32 -157 42 -89 101 -151 182 -191 61 -30 73 -32 166 -32 93 0 104 2
161 32 80 42 166 135 189 204 13 38 16 74 13 143 -4 77 -9 100 -35 151 -81
158 -246 239 -420 205z m185 -208 c36 -29 37 -31 36 -96 0 -57 -5 -72 -34
-115 -51 -74 -143 -121 -199 -100 -38 15 -86 71 -100 119 -26 87 10 199 67
203 12 1 22 4 22 8 0 13 34 18 103 15 58 -3 73 -8 105 -34z"/>
<path d="M4120 2771 c-76 -23 -138 -80 -173 -160 -51 -115 16 -277 138 -332
47 -22 139 -25 199 -7 56 17 141 100 155 153 29 108 -3 222 -82 290 -63 54
-165 78 -237 56z m95 -210 c13 -42 -25 -74 -78 -64 -55 11 -21 83 39 83 23 0
34 -5 39 -19z"/>
<path d="M933 2621 c-96 -45 -117 -170 -43 -255 70 -79 208 -59 254 38 65 137
-74 281 -211 217z"/>
<path d="M1340 1957 c-142 -40 -228 -156 -218 -294 15 -206 227 -343 403 -259
190 90 237 332 92 474 -75 73 -186 105 -277 79z m129 -202 c25 -24 25 -25 8
-60 -34 -71 -138 -101 -172 -49 -10 16 -14 35 -10 53 6 28 46 73 75 84 27 11
74 -3 99 -28z"/>
<path d="M3717 1909 c-98 -23 -199 -109 -245 -207 -23 -49 -27 -70 -27 -152 0
-118 20 -167 102 -248 101 -101 218 -139 338 -109 93 23 130 43 186 100 66 67
100 140 107 226 6 90 -11 157 -58 231 -85 130 -250 195 -403 159z m187 -199
c49 -33 56 -45 56 -101 0 -77 -56 -151 -144 -189 -109 -49 -206 29 -206 165 0
74 19 108 72 131 98 42 156 40 222 -6z"/>
<path d="M2355 1477 c-237 -90 -358 -341 -278 -576 8 -24 33 -73 55 -108 199
-315 630 -291 795 44 34 69 38 85 41 173 4 81 0 109 -17 163 -46 137 -139 240
-267 295 -48 21 -78 26 -164 29 -90 3 -114 0 -165 -20z m195 -208 c123 -28
173 -139 114 -256 -33 -67 -87 -115 -158 -142 -83 -31 -127 -28 -166 11 -63
62 -81 141 -61 261 17 103 135 158 271 126z"/>
</g>
</svg>
