<?xml version="1.0" standalone="no"?>
<!DOCTYPE svg PUBLIC "-//W3C//DTD SVG 20010904//EN"
 "http://www.w3.org/TR/2001/REC-SVG-20010904/DTD/svg10.dtd">
<svg version="1.0" xmlns="http://www.w3.org/2000/svg"
 width="515.000000pt" height="281.000000pt" viewBox="0 0 515.000000 281.000000"
 preserveAspectRatio="xMidYMid meet">

<g transform="translate(0.000000,281.000000) scale(0.100000,-0.100000)"
fill="#000000" stroke="none">
<path d="M2410 2764 c-470 -56 -645 -104 -975 -263 -364 -176 -687 -408 -999
-716 -110 -109 -234 -229 -275 -269 -42 -39 -87 -83 -100 -99 -22 -26 -23 -29
-7 -62 9 -19 63 -76 119 -126 56 -51 156 -143 222 -204 188 -174 213 -196 325
-286 199 -160 438 -316 650 -423 431 -219 836 -304 1308 -276 304 18 440 44
690 131 461 159 873 427 1407 913 147 133 325 307 324 315 0 3 -66 65 -146
136 -80 72 -196 177 -257 235 -136 128 -202 184 -331 282 -401 302 -820 526
-1160 622 -122 34 -271 63 -380 75 -107 11 -366 20 -415 15z m-125 -459 c27
-22 28 -25 10 -30 -149 -49 -326 -162 -426 -273 -75 -83 -128 -166 -167 -257
-154 -364 -66 -784 221 -1051 85 -79 165 -129 281 -175 97 -39 92 -35 76 -54
-19 -23 -66 -18 -213 19 -429 110 -872 370 -1321 775 -69 62 -126 121 -126
130 0 27 259 261 446 403 358 271 727 454 1047 518 121 24 137 24 172 -5z
m651 9 c316 -63 655 -219 984 -452 184 -130 345 -261 465 -376 l100 -96 -41
-37 c-462 -420 -793 -638 -1209 -796 -111 -42 -268 -87 -372 -106 -53 -10 -86
7 -64 33 7 9 19 16 25 16 7 0 50 18 96 41 238 115 393 296 482 562 27 83 30
107 34 242 3 123 0 166 -16 239 -21 96 -69 216 -122 303 -44 73 -146 183 -228
245 -61 47 -235 138 -262 138 -7 0 -20 4 -28 10 -12 7 -12 12 4 29 23 25 49
26 152 5z m-561 -307 c30 -30 32 -38 26 -89 -3 -20 -61 -73 -99 -89 -51 -22
-151 -114 -189 -174 -49 -78 -114 -103 -173 -68 -47 27 -63 84 -37 130 20 35
178 206 224 242 50 39 146 80 187 81 19 0 39 -11 61 -33z m-397 -602 c56 -47
47 -126 -18 -160 -36 -19 -44 -19 -85 0 -36 18 -55 51 -55 98 0 37 6 47 40 70
36 25 83 21 118 -8z"/>
</g>
</svg>
